<?xml version="1.0" encoding="UTF-8"?>
<svg version="1.1" xmlns="http://www.w3.org/2000/svg" width="375" height="409">
<path d="M0 0 C1.01191406 -0.00386719 2.02382812 -0.00773437 3.06640625 -0.01171875 C12.2848397 0.00008462 21.28315992 0.57523034 30.30078125 2.54296875 C32.39205012 2.97394947 34.49649616 3.34203811 36.60546875 3.67578125 C47.94746671 5.53008984 58.38587007 9.0909186 69.125 13.125 C69.90746094 13.41761719 70.68992187 13.71023437 71.49609375 14.01171875 C73.3730699 14.71434778 75.24913843 15.41940069 77.125 16.125 C77.125 16.785 77.125 17.445 77.125 18.125 C77.99125 18.228125 78.8575 18.33125 79.75 18.4375 C83.29183123 19.15898414 85.96812042 20.39623261 89.125 22.125 C89.125 22.785 89.125 23.445 89.125 24.125 C89.805625 24.19074219 90.48625 24.25648437 91.1875 24.32421875 C95.09148692 25.3884705 97.93122687 27.55240661 101.125 29.9375 C101.72828125 30.37642578 102.3315625 30.81535156 102.953125 31.26757812 C112.72573753 38.41645664 112.72573753 38.41645664 116.625 43.125 C118.55977883 45.39336139 120.2881184 47.25549472 122.625 49.125 C126.29125009 52.05800007 129.15008377 55.50621413 132.125 59.125 C132.84042969 59.97964844 133.55585938 60.83429688 134.29296875 61.71484375 C138.88462978 67.47615337 142.42033647 73.22976347 145.5625 79.875 C145.89241943 80.57165771 146.22233887 81.26831543 146.56225586 81.98608398 C151.10380586 92.00836464 153.17635494 102.68727304 149.625 113.375 C149.14350263 114.63224313 148.65079382 115.88562885 148.125 117.125 C147.465 117.125 146.805 117.125 146.125 117.125 C146.125 118.115 146.125 119.105 146.125 120.125 C145.465 120.125 144.805 120.125 144.125 120.125 C144.125 120.785 144.125 121.445 144.125 122.125 C143.465 122.125 142.805 122.125 142.125 122.125 C142.125 122.785 142.125 123.445 142.125 124.125 C141.320625 124.24875 140.51625 124.3725 139.6875 124.5 C138.841875 124.70625 137.99625 124.9125 137.125 125.125 C136.795 125.785 136.465 126.445 136.125 127.125 C130.76307568 129.97352229 125.0584284 130.89839391 119.19140625 129.3515625 C107.62046213 124.95902575 101.5930509 118.69493487 96.140625 107.77734375 C93.86552473 103.44535251 91.0018259 99.58795887 88.0625 95.6875 C87.32036255 94.69459961 87.32036255 94.69459961 86.56323242 93.68164062 C84.12905772 90.49684469 81.63457863 87.56844404 78.75390625 84.77734375 C76.125 82.125 76.125 82.125 76.125 80.125 C75.03832031 79.74214844 75.03832031 79.74214844 73.9296875 79.3515625 C70.95647844 78.05130116 68.80250025 76.49588026 66.25 74.5 C45.53256611 59.18469269 21.66779411 54.23161133 -3.875 55.125 C-4.73738281 55.15335938 -5.59976563 55.18171875 -6.48828125 55.2109375 C-19.81858174 55.9853118 -33.58350328 58.88504339 -45.875 64.125 C-46.76058594 64.48207031 -47.64617187 64.83914062 -48.55859375 65.20703125 C-54.94014114 67.91353149 -60.48705587 71.36503399 -66.1484375 75.35546875 C-68.68024972 76.99860763 -71.0392827 78.11960932 -73.875 79.125 C-73.875 79.785 -73.875 80.445 -73.875 81.125 C-76.875 83.125 -76.875 83.125 -79.875 83.125 C-80.12507813 83.71667969 -80.37515625 84.30835938 -80.6328125 84.91796875 C-82.04034521 87.41877372 -83.50778284 88.66487927 -85.75 90.4375 C-89.58771067 93.66117696 -91.67994968 96.64343892 -93.875 101.125 C-94.535 101.125 -95.195 101.125 -95.875 101.125 C-95.98199219 101.68960938 -96.08898437 102.25421875 -96.19921875 102.8359375 C-96.98456834 105.496139 -98.18773442 107.41871881 -99.6875 109.75 C-108.62068344 124.44721371 -112.28126905 142.35516159 -114 159.3125 C-114.09925781 160.22708984 -114.19851562 161.14167969 -114.30078125 162.08398438 C-114.38972656 162.95732422 -114.47867188 163.83066406 -114.5703125 164.73046875 C-114.65297363 165.52606201 -114.73563477 166.32165527 -114.82080078 167.14135742 C-115.03308608 169.20172463 -115.03308608 169.20172463 -113.875 171.125 C-113.79417906 173.08266281 -113.73589222 175.04126728 -113.6875 177 C-113.27461201 183.45303976 -111.93614578 189.25579449 -110.0625 195.4375 C-109.81411377 196.26040527 -109.56572754 197.08331055 -109.30981445 197.93115234 C-107.54712864 203.52168915 -105.35537384 208.81772483 -102.875 214.125 C-102.38515625 215.18589844 -101.8953125 216.24679687 -101.390625 217.33984375 C-100.53805564 219.17392044 -99.68385563 221.00723989 -98.828125 222.83984375 C-97.875 225.125 -97.875 225.125 -97.875 227.125 C-97.215 227.125 -96.555 227.125 -95.875 227.125 C-95.875 228.115 -95.875 229.105 -95.875 230.125 C-95.215 230.125 -94.555 230.125 -93.875 230.125 C-93.875 231.115 -93.875 232.105 -93.875 233.125 C-93.215 233.125 -92.555 233.125 -91.875 233.125 C-91.545 234.445 -91.215 235.765 -90.875 237.125 C-90.215 237.125 -89.555 237.125 -88.875 237.125 C-88.6171875 237.71796875 -88.359375 238.3109375 -88.09375 238.921875 C-85.92298087 242.84595765 -82.29301739 245.3006686 -78.875 248.125 C-78.14152344 248.75664062 -77.40804687 249.38828125 -76.65234375 250.0390625 C-58.84394981 264.96362637 -38.67911692 271.96451471 -15.875 275.125 C-14.781875 275.30933594 -13.68875 275.49367188 -12.5625 275.68359375 C0.17757187 277.20862354 13.58194855 276.73198716 26.125 274.125 C27.22457031 273.93035156 28.32414063 273.73570312 29.45703125 273.53515625 C43.58316461 270.85578864 55.98449024 265.80345411 68.125 258.125 C69.47658203 257.32255859 69.47658203 257.32255859 70.85546875 256.50390625 C74.91342122 254.03840328 76.74683408 251.18770012 79.125 247.125 C80.6875 244.8125 80.6875 244.8125 82.125 243.125 C82.785 243.125 83.445 243.125 84.125 243.125 C84.269375 242.50625 84.41375 241.8875 84.5625 241.25 C85.125 239.125 85.125 239.125 86.125 237.125 C86.785 237.125 87.445 237.125 88.125 237.125 C88.21394531 236.4340625 88.30289062 235.743125 88.39453125 235.03125 C90.45056353 226.85110017 96.32074846 218.96357887 103.125 214.125 C103.82753906 213.27035156 104.53007812 212.41570312 105.25390625 211.53515625 C109.15892236 208.2570679 111.93107859 208.39263559 116.875 208.5625 C118.0810791 208.58630737 118.0810791 208.58630737 119.31152344 208.6105957 C125.27185504 208.83969973 130.11350743 209.72075672 135.125 213.125 C135.69347656 213.48722656 136.26195312 213.84945312 136.84765625 214.22265625 C142.13881954 218.05777461 144.510931 222.87379904 145.6953125 229.14453125 C146.54651121 236.77815375 145.762046 242.94694044 143.125 250.125 C142.76019531 251.12660156 142.39539063 252.12820313 142.01953125 253.16015625 C139.7449522 258.98278417 137.08714521 264.11373843 133.4765625 269.21484375 C131.98716138 271.26065995 131.98716138 271.26065995 130.375 274.125 C129.125 276.125 129.125 276.125 127.125 277.125 C125.99149466 279.14169827 125.99149466 279.14169827 125.125 281.125 C124.465 281.125 123.805 281.125 123.125 281.125 C122.91488281 281.67285156 122.70476562 282.22070312 122.48828125 282.78515625 C120.63390669 285.96787936 118.04838549 288.157435 115.3125 290.5625 C114.26331021 291.49756284 113.21512375 292.43375276 112.16796875 293.37109375 C111.6579834 293.82468262 111.14799805 294.27827148 110.62255859 294.74560547 C109.15130775 296.10076805 107.755847 297.53675748 106.36328125 298.97265625 C104.125 301.125 104.125 301.125 102.125 301.125 C101.795 302.115 101.465 303.105 101.125 304.125 C98.125 306.125 98.125 306.125 95.125 306.125 C95.125 306.785 95.125 307.445 95.125 308.125 C76.97860764 318.08105114 76.97860764 318.08105114 67.125 321.125 C66.35671875 321.37507813 65.5884375 321.62515625 64.796875 321.8828125 C53.89796418 325.31127782 42.9300514 328.39648028 31.48046875 328.94921875 C28.97288317 329.03973343 28.97288317 329.03973343 26.125 330.125 C24.46814451 330.27356759 22.80661845 330.37278728 21.14453125 330.44140625 C20.15308105 330.48346191 19.16163086 330.52551758 18.14013672 330.56884766 C17.0832666 330.60800293 16.02639648 330.6471582 14.9375 330.6875 C13.85484863 330.7292334 12.77219727 330.7709668 11.65673828 330.81396484 C-12.13001394 331.68003028 -36.26512364 331.41754447 -58.875 323.125 C-60.47601563 322.54298828 -60.47601563 322.54298828 -62.109375 321.94921875 C-78.07977347 315.86607341 -92.79374177 308.18511962 -105.875 297.125 C-106.64199219 296.49722656 -107.40898438 295.86945313 -108.19921875 295.22265625 C-112.2275977 291.83881793 -115.68096419 288.17934575 -119.0859375 284.17578125 C-122.92635533 279.77355557 -126.99959194 275.57417895 -131.625 272 C-134.38803848 269.69746793 -136.06113188 267.21529383 -137.875 264.125 C-137.875 263.465 -137.875 262.805 -137.875 262.125 C-138.535 262.125 -139.195 262.125 -139.875 262.125 C-141.3828125 260.26171875 -141.3828125 260.26171875 -143 257.8125 C-143.53882813 257.01199219 -144.07765625 256.21148437 -144.6328125 255.38671875 C-145.875 253.125 -145.875 253.125 -145.875 250.125 C-146.535 250.125 -147.195 250.125 -147.875 250.125 C-155.98572678 234.85155347 -162.66072837 219.19939329 -165.875 202.125 C-166.06707031 201.14917969 -166.25914062 200.17335937 -166.45703125 199.16796875 C-167.47094489 193.8358042 -168.25633429 188.51622974 -168.875 183.125 C-169.04386719 181.91457031 -169.21273437 180.70414063 -169.38671875 179.45703125 C-174.04011551 141.98403359 -161.1633773 105.63425758 -141.875 74.125 C-141.46121094 73.44179687 -141.04742187 72.75859375 -140.62109375 72.0546875 C-139.5625 70.375 -139.5625 70.375 -137.875 68.125 C-137.215 68.125 -136.555 68.125 -135.875 68.125 C-135.813125 67.58875 -135.75125 67.0525 -135.6875 66.5 C-134.11450225 61.90200658 -130.33768308 58.44340462 -126.875 55.125 C-118.96193308 47.80796524 -118.96193308 47.80796524 -112.875 39.125 C-111.885 38.795 -110.895 38.465 -109.875 38.125 C-109.215 37.135 -108.555 36.145 -107.875 35.125 C-106.885 35.125 -105.895 35.125 -104.875 35.125 C-104.545 34.135 -104.215 33.145 -103.875 32.125 C-100.875 30.125 -100.875 30.125 -97.875 30.125 C-97.875 29.465 -97.875 28.805 -97.875 28.125 C-84.9537365 20.67505713 -72.17433687 13.56272524 -57.875 9.125 C-56.59302734 8.70154297 -56.59302734 8.70154297 -55.28515625 8.26953125 C-44.1141136 4.70276399 -32.48030432 2.66863177 -20.875 1.125 C-20.22466797 1.03524902 -19.57433594 0.94549805 -18.90429688 0.85302734 C-12.59561262 0.05523102 -6.35303724 -0.02409496 0 0 Z " fill="#E7E8EC" transform="translate(190.875,45.875)"/>
<path d="M0 0 C10.10224949 0.97137014 10.10224949 0.97137014 13.8125 4.9375 C15 7 15 7 15 10 C15.66 10 16.32 10 17 10 C17.95938693 11.50294052 18.84229624 13.05500507 19.6875 14.625 C23.78016144 21.6651743 28.52603627 25.71874763 36 29 C36 29.66 36 30.32 36 31 C37.65 31.66 39.3 32.32 41 33 C40.247626 41.87801315 40.247626 41.87801315 37 46 C35.515 46.495 35.515 46.495 34 47 C34 47.66 34 48.32 34 49 C32.68 49.33 31.36 49.66 30 50 C30 50.66 30 51.32 30 52 C29.01 52 28.02 52 27 52 C27 52.66 27 53.32 27 54 C26.236875 54.144375 25.47375 54.28875 24.6875 54.4375 C21.91827092 54.9632594 21.91827092 54.9632594 19 56 C17.52698031 58.78043527 17.52698031 58.78043527 16.3125 62.0625 C15.87550781 63.16722656 15.43851562 64.27195312 14.98828125 65.41015625 C14.66214844 66.26480469 14.33601563 67.11945313 14 68 C13.34 68 12.68 68 12 68 C12 68.99 12 69.98 12 71 C11.34 71 10.68 71 10 71 C10 71.66 10 72.32 10 73 C6.17369543 74.80061392 3.22501011 75.52812626 -1 75 C-5.39325348 72.13878873 -7.45157367 68.75824109 -9.75 64.1875 C-14.61652069 55.14767858 -21.18538028 50.65396454 -30.25 46.04296875 C-32 45 -32 45 -33 43 C-33.37937519 37.30937216 -33.00974609 34.01624348 -30 29 C-29.01 29 -28.02 29 -27 29 C-26.67 28.01 -26.34 27.02 -26 26 C-24.14453125 24.859375 -24.14453125 24.859375 -21.8125 23.75 C-17.70723054 21.59620203 -15.11173004 19.29644642 -12.2890625 15.6484375 C-11 14 -11 14 -9.3984375 12.4140625 C-7.88617898 11.03148504 -7.88617898 11.03148504 -7 9 C-6.34 9 -5.68 9 -5 9 C-5 8.01 -5 7.02 -5 6 C-4.34 6 -3.68 6 -3 6 C-2.690625 5.195625 -2.38125 4.39125 -2.0625 3.5625 C-1 1 -1 1 0 0 Z " fill="#E3E4E7" transform="translate(314,177)"/>
<path d="M0 0 C0.66 0.33 1.32 0.66 2 1 C0.92984982 6.61828844 -1.50618395 8.35374562 -5.95703125 11.41015625 C-9.07334547 13.83528032 -10.88168796 16.69013743 -13 20 C-14.32 19.34 -15.64 18.68 -17 18 C-16.29875 17.649375 -15.5975 17.29875 -14.875 16.9375 C-11.76814349 14.84374887 -9.77126723 12.6045888 -7.4296875 9.71875 C-6 8 -6 8 -4.3828125 6.40625 C-2.88570226 5.02827515 -2.88570226 5.02827515 -2 3 C-1.34 3 -0.68 3 0 3 C0 2.01 0 1.02 0 0 Z " fill="#717273" transform="translate(309,183)"/>
<path d="M0 0 C0.66 1.32 1.32 2.64 2 4 C3.32 4 4.64 4 6 4 C6.33 2.68 6.66 1.36 7 0 C7.99 0 8.98 0 10 0 C10 0.99 10 1.98 10 3 C9.01 3 8.02 3 7 3 C7 3.66 7 4.32 7 5 C5.8553125 5.2165625 5.8553125 5.2165625 4.6875 5.4375 C0.00407668 6.35645461 0.00407668 6.35645461 -3 10 C-3.33 8.35 -3.66 6.7 -4 5 C-2.68 4.34 -1.36 3.68 0 3 C0 2.01 0 1.02 0 0 Z " fill="#C3C4C6" transform="translate(334,226)"/>
<path d="M0 0 C0.99 0.33 1.98 0.66 3 1 C2.43545368 2.48643845 1.84765111 3.96406016 1.25 5.4375 C0.92515625 6.26121094 0.6003125 7.08492188 0.265625 7.93359375 C-1 10 -1 10 -3 10.6875 C-3.66 10.790625 -4.32 10.89375 -5 11 C-7.2072358 12.48800372 -7.2072358 12.48800372 -9 14 C-7.63055898 11.05043472 -6.12169591 8.47531189 -4 6 C-3.34 6 -2.68 6 -2 6 C-1.855625 5.38125 -1.71125 4.7625 -1.5625 4.125 C-1 2 -1 2 0 0 Z " fill="#898A8D" transform="translate(277,283)"/>
<path d="M0 0 C0.66 0.33 1.32 0.66 2 1 C1.6875 2.9375 1.6875 2.9375 1 5 C0.01 5.33 -0.98 5.66 -2 6 C-2.103125 6.78375 -2.20625 7.5675 -2.3125 8.375 C-3 11 -3 11 -6 13 C-6.33 13.99 -6.66 14.98 -7 16 C-7.66 16 -8.32 16 -9 16 C-7.56691865 12.04093183 -5.66858051 8.71281819 -3.375 5.1875 C-2.74335937 4.21167969 -2.11171875 3.23585938 -1.4609375 2.23046875 C-0.73777344 1.12638672 -0.73777344 1.12638672 0 0 Z " fill="#919194" transform="translate(53,114)"/>
<path d="M0 0 C2.475 0.99 2.475 0.99 5 2 C5.33 1.34 5.66 0.68 6 0 C6.99 0.33 7.98 0.66 9 1 C9.33 1.99 9.66 2.98 10 4 C9.34 4 8.68 4 8 4 C10.475 6.97 10.475 6.97 13 10 C12.67 10.66 12.34 11.32 12 12 C10.29115995 10.37660195 8.62553283 8.70680947 7 7 C7 6.34 7 5.68 7 5 C6.21625 4.731875 5.4325 4.46375 4.625 4.1875 C2 3 2 3 0 0 Z " fill="#959599" transform="translate(260,121)"/>
<path d="M0 0 C1.11375 0.3403125 1.11375 0.3403125 2.25 0.6875 C2.25 2.0075 2.25 3.3275 2.25 4.6875 C2.91 4.6875 3.57 4.6875 4.25 4.6875 C4.25 5.3475 4.25 6.0075 4.25 6.6875 C0.52566618 5.4749262 -3.12802806 4.17890021 -6.75 2.6875 C-4.29511132 0.41445492 -3.41240272 -0.38777304 0 0 Z " fill="#A1A2A4" transform="translate(238.75,104.3125)"/>
<path d="M0 0 C0.66 0.33 1.32 0.66 2 1 C1.49339844 1.79664063 1.49339844 1.79664063 0.9765625 2.609375 C0.30753906 3.66898437 0.30753906 3.66898437 -0.375 4.75 C-0.81585938 5.44609375 -1.25671875 6.1421875 -1.7109375 6.859375 C-2.91880906 8.86517383 -3.98387737 10.89178296 -5 13 C-5.66 13 -6.32 13 -7 13 C-5.58832253 7.73829306 -3.25149768 4.27828642 0 0 Z " fill="#7D7E81" transform="translate(289,264)"/>
<path d="M0 0 C0.66 0.33 1.32 0.66 2 1 C1.34 2.65 0.68 4.3 0 6 C-0.66 6 -1.32 6 -2 6 C-2 6.99 -2 7.98 -2 9 C-2.99 9 -3.98 9 -5 9 C-5.33 7.68 -5.66 6.36 -6 5 C-5.195625 4.731875 -4.39125 4.46375 -3.5625 4.1875 C-2.716875 3.795625 -1.87125 3.40375 -1 3 C-0.67 2.01 -0.34 1.02 0 0 Z " fill="#9C9DA0" transform="translate(339,157)"/>
<path d="M0 0 C2.96404505 2.80804268 5.44499019 5.18315774 7 9 C6.34 9 5.68 9 5 9 C4.01 9.495 4.01 9.495 3 10 C2.01 6.7 1.02 3.4 0 0 Z " fill="#9A9B9D" transform="translate(321,104)"/>
<path d="M0 0 C2.79872437 2.52788007 4.45773019 4.20411134 5 8 C3.68 7.67 2.36 7.34 1 7 C0.67 4.69 0.34 2.38 0 0 Z " fill="#949597" transform="translate(328,113)"/>
<path d="M0 0 C0.99 0 1.98 0 3 0 C3 0.99 3 1.98 3 3 C2.01 3 1.02 3 0 3 C0 3.66 0 4.32 0 5 C-1.65 5.33 -3.3 5.66 -5 6 C-5 5.34 -5 4.68 -5 4 C-3.68 4 -2.36 4 -1 4 C-0.67 2.68 -0.34 1.36 0 0 Z " fill="#8E8E91" transform="translate(341,226)"/>
<path d="M0 0 C0.66 0.33 1.32 0.66 2 1 C0.52307692 6.66153846 0.52307692 6.66153846 -2.125 8.375 C-2.74375 8.58125 -3.3625 8.7875 -4 9 C-3.34 7.02 -2.68 5.04 -2 3 C-1.34 3 -0.68 3 0 3 C0 2.01 0 1.02 0 0 Z " fill="#AAAAAD" transform="translate(309,183)"/>
<path d="M0 0 C0.66 0.33 1.32 0.66 2 1 C0.3125 4 0.3125 4 -2 7 C-4.75 7.375 -4.75 7.375 -7 7 C-4.66666667 4.66666667 -2.33333333 2.33333333 0 0 Z " fill="#999A9E" transform="translate(265,299)"/>
<path d="M0 0 C1.32 0 2.64 0 4 0 C3.6875 1.875 3.6875 1.875 3 4 C2.01 4.66 1.02 5.32 0 6 C0 4.02 0 2.04 0 0 Z " fill="#EFF0F3" transform="translate(283,210)"/>
<path d="M0 0 C0.66 0.33 1.32 0.66 2 1 C1.8125 2.8125 1.8125 2.8125 1 5 C-1.5625 6.75 -1.5625 6.75 -4 8 C-2.87548273 5.0280615 -1.77706209 2.66559313 0 0 Z " fill="#7E7F80" transform="translate(53,114)"/>
<path d="M0 0 C0.99 0.33 1.98 0.66 3 1 C1.625 3.5 1.625 3.5 0 6 C-0.66 6 -1.32 6 -2 6 C-1.49396008 3.83125748 -1.00016187 2.00032373 0 0 Z " fill="#949597" transform="translate(277,283)"/>
<path d="M0 0 C2.00720923 0.28674418 4.0085944 0.61866701 6 1 C4.35 2.32 2.7 3.64 1 5 C0.34 3.68 -0.32 2.36 -1 1 C-0.67 0.67 -0.34 0.34 0 0 Z " fill="#A4A5A8" transform="translate(128,113)"/>
<path d="M0 0 C1.32 0.66 2.64 1.32 4 2 C4 2.99 4 3.98 4 5 C3.01 5.33 2.02 5.66 1 6 C0.34 4.35 -0.32 2.7 -1 1 C-0.67 0.67 -0.34 0.34 0 0 Z " fill="#F0F1F4" transform="translate(281,73)"/>
</svg>
