<?xml version="1.0" encoding="UTF-8"?>
<svg version="1.1" xmlns="http://www.w3.org/2000/svg" width="773" height="144">
<path d="M0 0 C13.16061662 12.65368917 20.5269395 30.09330082 20.95505619 48.2894249 C20.99434496 52.58687687 20.96804569 56.88232845 20.9296875 61.1796875 C20.92407953 63.04440466 20.91981513 64.90912629 20.91682434 66.77384949 C20.90546997 71.63836261 20.87608585 76.50259917 20.8427124 81.36700439 C20.81180657 86.34814719 20.79827553 91.32933546 20.78320312 96.31054688 C20.75120538 106.05222326 20.69851643 115.79362329 20.63671875 125.53515625 C12.38671875 125.53515625 4.13671875 125.53515625 -4.36328125 125.53515625 C-4.69328125 121.24515625 -5.02328125 116.95515625 -5.36328125 112.53515625 C-6.74515625 113.58703125 -8.12703125 114.63890625 -9.55078125 115.72265625 C-26.22254797 127.30613411 -48.23464193 128.8188631 -67.88452148 125.66210938 C-85.70385084 122.37146896 -98.13576942 113.76697425 -109.04296875 99.30859375 C-120.65081073 81.80661439 -122.98842188 58.22216861 -119.75 37.8984375 C-116.03398648 19.67101647 -106.10000279 3.8875494 -90.61328125 -6.40234375 C-62.93804596 -23.61776713 -24.64416825 -21.05828357 0 0 Z M-81.62109375 17.5625 C-92.94878292 30.38869514 -95.18064867 45.7129171 -94.53808594 62.15234375 C-93.62138466 74.64816001 -87.58578785 86.45154272 -78.4296875 94.97265625 C-67.92658456 102.91451103 -56.47044602 105.42083907 -43.55859375 104.0625 C-31.78851756 102.12000576 -21.5130104 96.31426253 -14.42578125 86.59765625 C-7.88178942 76.35897047 -4.96511438 66.29629657 -5.05078125 54.16015625 C-5.0556958 53.32943604 -5.06061035 52.49871582 -5.06567383 51.64282227 C-5.18763699 45.23256339 -5.9615871 39.52480644 -8.36328125 33.53515625 C-8.69199219 32.69984375 -9.02070312 31.86453125 -9.359375 31.00390625 C-14.04900201 20.48875641 -21.93891048 12.22568467 -32.4765625 7.609375 C-49.47081846 1.24030216 -68.41838367 5.09936082 -81.62109375 17.5625 Z " fill="#EDF0F5" transform="translate(752.36328125,17.46484375)"/>
<path d="M0 0 C8.58 0 17.16 0 26 0 C26.01981934 2.49747803 26.03963867 4.99495605 26.06005859 7.56811523 C26.12712276 15.84230233 26.20475963 24.11636627 26.28752708 32.39041042 C26.33736116 37.40437011 26.38369192 42.41831003 26.421875 47.43237305 C26.45889113 52.27595998 26.50529446 57.11937622 26.55806351 61.96281624 C26.57652101 63.80583753 26.59166047 65.64889529 26.60334396 67.49197197 C26.62035529 70.08393513 26.64942435 72.67551469 26.68115234 75.26733398 C26.68331253 76.02043854 26.68547272 76.77354309 26.68769836 77.54946899 C26.85384794 88.2529639 29.76269573 97.78070117 36.75 106.078125 C44.1143824 113.13565814 53.8204836 116.70268339 63.9296875 117.125 C75.05684035 116.67198614 84.92958514 113.09570826 92.875 105.1171875 C99.8536785 96.49851956 102.12393553 86.57428173 102.20532227 75.72143555 C102.21522186 74.90140549 102.22512146 74.08137543 102.23532104 73.23649597 C102.26680953 70.53659921 102.29164327 67.83668487 102.31640625 65.13671875 C102.33698671 63.26055962 102.35798347 61.38440501 102.37937927 59.508255 C102.43448715 54.5780301 102.48394607 49.64776413 102.53222656 44.71746826 C102.58252411 39.68335327 102.63816704 34.64929766 102.69335938 29.61523438 C102.80080291 19.74353851 102.90178421 9.87179199 103 0 C111.58 0 120.16 0 129 0 C129.06815744 10.67590116 129.12303426 21.35165448 129.15543652 32.02772522 C129.17099894 36.9866656 129.19206193 41.9454476 129.22631836 46.90429688 C129.25925184 51.70243861 129.27692358 56.50042937 129.28463173 61.29867554 C129.29011494 63.11642834 129.30081938 64.93417421 129.31719017 66.75186157 C129.49427054 87.25527217 127.46498079 106.27276091 112.44140625 121.75390625 C98.07445433 134.97150202 81.24407115 140.39453855 61.94921875 140.15234375 C43.57648083 139.20328841 26.96672463 133.14243586 14.1875 119.60546875 C0.51343187 103.31867688 -0.31610347 84.65421506 -0.1953125 64.35546875 C-0.19157385 62.49074964 -0.18873092 60.62602855 -0.18673706 58.76130676 C-0.17916759 53.89686484 -0.15957801 49.03254583 -0.1373291 44.16815186 C-0.11672513 39.18698793 -0.10770449 34.2058038 -0.09765625 29.22460938 C-0.07632459 19.48301073 -0.04119846 9.7415349 0 0 Z " fill="#EDF0F5" transform="translate(0,4)"/>
<path d="M0 0 C4.1286036 4.23088883 6.8168912 9.05551279 9.484375 14.27734375 C9.82218994 14.933396 10.16000488 15.58944824 10.50805664 16.26538086 C14.36166019 24.16278099 15.4764145 31.90288034 15.39892578 40.62329102 C15.39921783 41.50242661 15.39950989 42.38156219 15.39981079 43.28733826 C15.39843006 46.16041326 15.38292872 49.03322094 15.3671875 51.90625 C15.36345289 53.91120767 15.36060804 55.91616717 15.35861206 57.92112732 C15.35101087 63.17360559 15.33139284 68.42597156 15.3092041 73.67840576 C15.28866966 79.04795819 15.27959415 84.41752892 15.26953125 89.78710938 C15.24814339 100.30474453 15.21299017 110.82226719 15.171875 121.33984375 C6.921875 121.33984375 -1.328125 121.33984375 -9.828125 121.33984375 C-9.84270752 118.88836914 -9.85729004 116.43689453 -9.87231445 113.91113281 C-9.92285936 105.77263836 -9.98948849 97.63433126 -10.06383991 89.49602127 C-10.10839224 84.5662121 -10.14768097 79.63648269 -10.17456055 74.70654297 C-10.20074549 69.94068686 -10.24125309 65.17514024 -10.29131126 60.40947723 C-10.30787794 58.59964627 -10.31945524 56.7897619 -10.32573891 54.97986603 C-10.38304269 39.97915536 -11.06206279 27.04722808 -21.57421875 15.40625 C-28.17332241 9.02665914 -37.27110963 4.82346763 -46.48828125 4.2734375 C-57.96199302 4.59906872 -68.66260185 7.98874053 -76.828125 16.33984375 C-85.92786347 28.86036843 -86.28963993 41.00199294 -86.33984375 55.91015625 C-86.35671185 57.80159658 -86.37486493 59.69302584 -86.39424133 61.58444214 C-86.44151612 66.53267966 -86.47147066 71.48087231 -86.49768066 76.42926025 C-86.52760045 81.4906907 -86.57409127 86.55196686 -86.61914062 91.61328125 C-86.70491733 101.52207195 -86.77084208 111.43084732 -86.828125 121.33984375 C-95.078125 121.33984375 -103.328125 121.33984375 -111.828125 121.33984375 C-111.91885977 109.71671934 -111.99209005 98.09383408 -112.03537369 86.47043419 C-112.05615826 81.07195138 -112.08430732 75.67372558 -112.12988281 70.27539062 C-112.17366841 65.05579768 -112.19733058 59.83645035 -112.20763397 54.61668777 C-112.21496706 52.63538375 -112.22928509 50.65409162 -112.25104523 48.67289352 C-112.46018846 28.82323912 -109.25798989 13.59266728 -95.23828125 -1.33984375 C-86.01801114 -10.21640849 -74.45854574 -15.6908971 -61.828125 -17.66015625 C-61.10882813 -17.78261719 -60.38953125 -17.90507812 -59.6484375 -18.03125 C-37.46541255 -21.05620795 -16.57118156 -15.04861574 0 0 Z " fill="#EDF0F5" transform="translate(278.828125,18.66015625)"/>
<path d="M0 0 C9.24 0 18.48 0 28 0 C36.46627573 22.90874609 44.70178046 45.89591956 52.89892578 68.90219116 C54.12025867 72.32806737 55.34372769 75.75317532 56.56738281 79.17822266 C58.23834084 83.85665209 59.89714051 88.53920012 61.54980469 93.22412109 C62.36381481 95.51794534 63.17793799 97.81172947 63.9921875 100.10546875 C64.36658966 101.17428787 64.74099182 102.24310699 65.1267395 103.34431458 C65.47534027 104.3227684 65.82394104 105.30122223 66.18310547 106.30932617 C66.48683075 107.16999191 66.79055603 108.03065765 67.10348511 108.91740417 C67.91918155 111.16577789 67.91918155 111.16577789 70 113 C72.5464898 113.00861888 72.5464898 113.00861888 75 112 C76.32893468 110.1797679 76.32893468 110.1797679 77.05273438 107.77734375 C77.38317749 106.86339844 77.71362061 105.94945313 78.05407715 105.0078125 C78.39716919 103.99460937 78.74026123 102.98140625 79.09375 101.9375 C79.66204529 100.34228516 79.66204529 100.34228516 80.24182129 98.71484375 C81.07059245 96.38429547 81.8906201 94.05062444 82.703125 91.71435547 C84.02196656 87.93708597 85.37188385 84.17182372 86.734375 80.41015625 C88.67470263 75.04758327 90.60662768 69.68213077 92.52734375 64.3125 C92.7718779 63.62893936 93.01641205 62.94537872 93.26835632 62.24110413 C94.0123995 60.16079395 94.75623848 58.08041089 95.5 56 C97.46656852 50.49921724 99.43451266 44.99893242 101.40625 39.5 C101.64341736 38.83846924 101.88058472 38.17693848 102.12493896 37.49536133 C106.62653569 24.9496623 111.28568172 12.4676186 116 0 C125.24 0 134.48 0 144 0 C135.91119243 23.33478498 127.30981201 46.47977043 118.72705078 69.63623047 C116.96778863 74.38341493 115.21336269 79.13232882 113.46435547 83.88330078 C111.53409929 89.12546791 109.59244042 94.36325938 107.64129639 99.59768677 C106.9298186 101.51179348 106.22224885 103.42735799 105.51885986 105.3444519 C95.85814446 131.64863079 95.85814446 131.64863079 83.4375 137.75 C74.57483163 140.9727885 66.69690604 140.59071631 58 137 C46.78117297 130.9835317 42.87560061 118.88465412 38.7265625 107.5703125 C38.24115171 106.26844994 37.75489316 104.96690321 37.26785278 103.66564941 C35.97506875 100.203893 34.69470737 96.73766842 33.41697693 93.27033234 C32.35503401 90.39370753 31.28549018 87.51993616 30.21575928 84.64620018 C22.98691354 65.22629997 15.84385082 45.77383685 8.82275391 26.27783203 C8.23085674 24.63571967 7.63890003 22.99362877 7.046875 21.3515625 C6.77543671 20.59722931 6.50399841 19.84289612 6.22433472 19.06570435 C4.48722661 14.26464461 2.64677949 9.52084864 0.63769531 4.82568359 C0 3 0 3 0 0 Z " fill="#EDF0F5" transform="translate(477,4)"/>
<path d="M0 0 C9.21970602 6.78520102 18.79206342 16.51970182 21.0859375 28.12109375 C21.33006153 32.56151187 20.99096755 34.72935467 18.41796875 38.4375 C15.16773535 40.62787468 13.46015041 41.375 9.54296875 41.375 C5.80687287 40.23517414 3.32825795 39.44299331 0.98046875 36.25 C0.50609375 35.30125 0.03171875 34.3525 -0.45703125 33.375 C-7.42208972 21.43163745 -16.28381868 14.3393217 -29.75390625 10.765625 C-44.43766858 8.64369403 -59.31171129 9.89271992 -71.5390625 18.890625 C-72.17199219 19.38046875 -72.80492187 19.8703125 -73.45703125 20.375 C-74.48828125 21.096875 -75.51953125 21.81875 -76.58203125 22.5625 C-85.23441349 30.08526567 -90.06600799 42.22536331 -91.33203125 53.375 C-92.03308983 66.97553652 -87.54427937 79.7836272 -78.68359375 90.12109375 C-68.91686438 100.00776541 -56.69209646 104.46277482 -42.95703125 104.625 C-31.2831131 104.61830086 -19.38655291 102.78550891 -10.52734375 94.58984375 C-6.78995743 90.55571217 -4.09776386 86.29141427 -1.6953125 81.35546875 C-0.21449386 78.9870932 1.1433249 77.79896448 3.54296875 76.375 C8.10432506 75.46925662 11.59477473 75.78237874 15.54296875 78.25 C18.46202327 81.35149543 19.02275305 83.62425291 18.9375 87.91015625 C17.14537293 99.10651446 8.51092868 108.62755519 -0.0546875 115.44140625 C-12.91960858 124.21380457 -26.37087422 126.55872045 -41.58203125 126.625 C-43.32226562 126.6559375 -43.32226562 126.6559375 -45.09765625 126.6875 C-55.93250998 126.73597809 -65.77442354 124.81515771 -75.45703125 119.875 C-76.46540039 119.36332275 -76.46540039 119.36332275 -77.49414062 118.84130859 C-84.53907569 115.07631599 -90.0078685 110.15811741 -95.45703125 104.375 C-96.20597656 103.58351563 -96.95492188 102.79203125 -97.7265625 101.9765625 C-109.47931343 88.44853944 -114.34640242 71.02819402 -113.7421875 53.328125 C-112.29727664 33.297306 -103.7871411 17.7782011 -89.5078125 3.953125 C-64.89527108 -16.84620578 -26.5181323 -17.53822422 0 0 Z " fill="#EDF0F5" transform="translate(440.45703125,14.625)"/>
<path d="M0 0 C2.1875 0 2.1875 0 5 1 C6.19921875 2.70703125 6.19921875 2.70703125 7.375 4.8125 C9.88500859 9.2791926 12.40842269 10.83925774 17 13 C16.875 15.25 16.875 15.25 16 18 C10.91891892 22 10.91891892 22 8 22 C7.71125 22.763125 7.4225 23.52625 7.125 24.3125 C6 27 6 27 4 30 C1.6875 30.6875 1.6875 30.6875 -1 30 C-2.37284634 28.09601966 -3.45898143 26.09867244 -4.59765625 24.046875 C-6.82084534 20.80188591 -9.4849623 19.65413539 -13 18 C-13.23046875 15.6796875 -13.23046875 15.6796875 -13 13 C-11.42578125 11.4453125 -11.42578125 11.4453125 -9.3125 10.125 C-5.08601543 7.24228228 -2.74736201 4.29275314 0 0 Z " fill="#EDF0F5" transform="translate(450,58)"/>
</svg>
